<svg width="36" height="37" viewBox="0 0 36 37" fill="none" xmlns="http://www.w3.org/2000/svg">
<rect opacity="0.1" y="0.964844" width="36" height="35.3684" rx="6" fill="#FF2E35"/>
<path d="M24.2857 15.6203C24.2389 15.3488 24.0141 15.1602 23.7424 15.1602C23.7002 15.1602 23.6628 15.1648 23.6206 15.174C23.3396 15.2292 23.1756 15.4501 23.1756 15.7768C23.1756 17.5392 23.1756 19.2971 23.1756 21.0595V23.7883C23.1756 24.7684 22.4778 25.4495 21.4801 25.4495H15.5176C14.5199 25.4495 13.822 24.7638 13.822 23.7883V15.8458V15.7998C13.822 15.7538 13.822 15.7124 13.822 15.6709C13.7986 15.381 13.555 15.1602 13.2693 15.1602C13.2365 15.1602 13.2037 15.1648 13.1756 15.1694C12.8712 15.22 12.7026 15.4409 12.7026 15.7814C12.7026 16.7523 12.7026 17.7233 12.7026 18.6942V19.8493V21.0549C12.7026 21.9798 12.7026 22.9048 12.7026 23.8251C12.7026 25.3528 13.9297 26.5539 15.4895 26.5539C16.3044 26.5539 17.1241 26.5539 17.9391 26.5539C19.1335 26.5539 20.3279 26.5539 21.5176 26.5493C21.7002 26.5493 21.8642 26.5355 22.0094 26.5125C23.3817 26.2686 24.3045 25.178 24.3045 23.8067C24.3045 21.1469 24.3045 18.4918 24.3045 15.832C24.2998 15.7722 24.2951 15.6939 24.2857 15.6203Z" fill="#FF2E35" stroke="#FF2E35" stroke-width="0.1"/>
<path d="M24.9415 13.182C24.8291 13.0348 24.6464 12.952 24.4403 12.9474C24.1499 12.9474 23.8361 12.9428 23.4567 12.9428C23.2366 12.9428 23.0164 12.9428 22.7916 12.9428H22.7448C22.5106 12.9428 22.2717 12.9428 22.0375 12.9428H21.3021V12.7587C21.3021 12.6068 21.3021 12.455 21.3021 12.3077C21.3021 11.9718 21.3021 11.6543 21.3021 11.3276C21.2974 10.9594 21.0773 10.7432 20.7073 10.7432C19.2319 10.7432 17.7611 10.7432 16.2904 10.7478C15.9204 10.7478 15.7003 10.9686 15.6956 11.3368C15.6909 11.6221 15.6956 11.912 15.6956 12.1927C15.6956 12.3215 15.6956 12.4458 15.6956 12.5746V12.952C15.4145 12.952 13.9345 12.952 13.7003 12.952C13.3256 12.952 12.9462 12.952 12.5715 12.952C12.2108 12.952 11.9579 13.1774 11.9532 13.4996C11.9532 13.6514 12.0047 13.7849 12.1031 13.8815C12.2155 13.9919 12.3841 14.0564 12.5761 14.0564C14.5527 14.0564 16.5246 14.0564 18.5012 14.0564H24.459C24.4871 14.0564 24.5106 14.0564 24.5293 14.0564C24.7541 14.038 24.9508 13.8815 25.0164 13.6652C25.0726 13.4904 25.0445 13.3201 24.9415 13.182ZM20.1686 11.8614V12.9382H16.8197V11.8614H20.1686Z" fill="#FF2E35" stroke="#FF2E35" stroke-width="0.1"/>
<path d="M16.4403 22.2657C16.4403 22.62 16.6698 22.8731 16.993 22.8731H16.9977C17.3303 22.8731 17.5598 22.62 17.5598 22.2611C17.5644 20.3192 17.5598 18.7224 17.5598 17.236C17.5598 17.1348 17.5363 17.029 17.4989 16.9415C17.4192 16.7529 17.2178 16.624 16.9977 16.624C16.9649 16.624 16.9321 16.6286 16.8993 16.6332C16.623 16.6838 16.4403 16.9001 16.4356 17.167C16.431 17.7606 16.431 18.3589 16.4356 18.9433V19.0721C16.4356 19.2976 16.4356 19.5231 16.4356 19.7486V20.356C16.4403 20.9956 16.4403 21.6306 16.4403 22.2657Z" fill="#FF2E35" stroke="#FF2E35" stroke-width="0.1"/>
<path d="M20.5527 17.2261C20.5527 16.881 20.3279 16.6325 20.0047 16.6279H19.9953C19.6721 16.6279 19.4333 16.8764 19.4333 17.2169C19.4286 19.2095 19.4286 20.82 19.4379 22.2788C19.4379 22.3892 19.4707 22.5135 19.5269 22.6193C19.6159 22.7804 19.7892 22.877 19.9859 22.877C20.0375 22.877 20.089 22.8724 20.1405 22.8586C20.3934 22.7896 20.5527 22.5825 20.5574 22.3248C20.5621 21.7266 20.5574 21.1238 20.5574 20.5347V20.5255C20.5574 20.2725 20.5574 20.0148 20.5574 19.7617V19.0806C20.5574 18.4594 20.5574 17.8428 20.5527 17.2261Z" fill="#FF2E35" stroke="#FF2E35" stroke-width="0.1"/>
</svg>
