<svg width="56" height="56" viewBox="0 0 56 56" fill="none" xmlns="http://www.w3.org/2000/svg">
<path d="M15.8334 55.01C13.6375 55.01 11.4415 55.01 9.24552 55.01C5.58109 55.01 2.60374 52.9083 1.47207 49.5268C1.18916 48.705 1.04096 47.7754 1.04096 46.8458C1.00055 41.7534 0.987074 36.2028 1.01402 29.3859C1.02749 24.7784 4.54373 21.2756 9.19163 21.2352C9.48802 21.2352 9.78441 21.2352 10.0673 21.2352C10.0673 21.2352 11.3741 21.2352 11.6436 21.2352H12.1825C12.1825 21.2352 12.1825 18.6755 12.1825 17.9749C12.1825 16.4391 12.1825 14.8629 12.1825 13.3001C12.1959 7.35887 16.278 2.40111 22.098 1.2425C22.4213 1.17514 22.7581 1.12125 23.0949 1.06736C23.2431 1.04042 23.3778 1.02694 23.526 1H25.5738C25.9106 1.08083 26.2609 1.14819 26.5842 1.21555C27.3521 1.37722 28.0796 1.51194 28.7802 1.76791C33.6975 3.49235 36.8904 8.00553 36.9174 13.2462C36.9309 14.9302 36.9309 16.5738 36.9174 18.3118C36.9174 19.0931 36.9174 19.888 36.9174 20.6829V21.2217H37.4563C37.7122 21.2217 38.6957 21.2217 38.9382 21.2217C39.2346 21.2217 39.531 21.2217 39.8274 21.2217H39.9217C41.3497 21.2217 42.5892 21.5181 43.7074 22.1244C46.4018 23.5794 47.8703 25.8427 48.0724 28.8201C48.1667 30.1134 48.1397 31.4606 48.1128 32.7539C48.1128 33.0368 48.0993 33.3198 48.0993 33.6162C48.0858 34.5188 47.3988 35.2059 46.5096 35.2059C45.6069 35.2059 44.9064 34.5053 44.8929 33.5892C44.8795 32.7135 44.8795 31.8244 44.8795 30.9621C44.8795 30.5176 44.8795 30.0595 44.8795 29.6149C44.8795 26.5298 42.8047 24.4551 39.7331 24.4551C34.7214 24.4551 29.7098 24.4551 24.6981 24.4551C19.5787 24.4551 14.4593 24.4551 9.33983 24.4551C6.26817 24.4551 4.20693 26.5163 4.20693 29.561C4.20693 35.2598 4.20693 41.0124 4.20693 46.6572C4.20693 49.7154 6.26817 51.7632 9.33983 51.7632C11.8052 51.7632 14.2706 51.7632 16.7361 51.7632C19.7404 51.7632 22.7447 51.7632 25.7489 51.7632C26.4495 51.7632 26.8806 51.9114 27.2039 52.2751C27.6755 52.7871 27.7832 53.3394 27.5408 53.9591C27.3117 54.5519 26.8671 54.8887 26.1801 54.983C26.0992 54.9965 26.0184 54.9965 25.9376 54.9965H25.7759H21.2897C19.4844 55.01 17.6656 55.01 15.8334 55.01ZM24.5634 4.2468C24.0245 4.2468 23.4856 4.28721 22.9467 4.38152C18.5952 5.10902 15.4293 8.86775 15.4293 13.327C15.4293 15.2266 15.4293 17.1262 15.4293 19.0393V20.1574C15.4293 20.2922 15.4427 20.4134 15.4427 20.5347C15.4427 20.5886 15.4427 20.6424 15.4562 20.6963L15.4831 21.2083H33.6975V20.6694C33.6975 19.9284 33.6975 19.174 33.6975 18.433C33.6975 16.4795 33.711 14.4587 33.6706 12.4783C33.6571 11.8316 33.5224 11.1311 33.2395 10.3227C31.9596 6.63137 28.5512 4.2468 24.5634 4.2468Z" fill="#F78F1E" stroke="#F78F1E" stroke-width="0.5"/>
<path d="M40.2185 55.0103C39.3428 55.0103 38.4671 54.7678 37.6183 54.3098C37.2815 54.1212 36.9313 53.8652 36.581 53.5284C34.4524 51.4671 32.216 49.2981 29.9527 47.0752C29.5081 46.6441 29.2791 46.1187 29.333 45.6067C29.3734 45.1622 29.6159 44.758 30.02 44.4751C30.3029 44.273 30.6128 44.1787 30.9361 44.1787C31.2864 44.1787 31.6232 44.2999 31.9061 44.5424C32.2295 44.7984 32.5259 45.0948 32.8357 45.4047C32.93 45.499 33.0243 45.5933 33.1186 45.6876C34.156 46.698 35.1934 47.7084 36.2307 48.7188C37.0256 49.5002 37.8204 50.2816 38.6288 51.0495C39.1542 51.5614 39.6526 51.8174 40.1511 51.8174C40.7439 51.8174 41.2693 51.4671 41.7813 50.7666L45.1493 46.0513C47.3992 42.8988 49.6625 39.7598 51.9123 36.6073C52.2222 36.1762 52.7207 35.6777 53.4077 35.6777C53.6233 35.6777 53.8523 35.7316 54.0814 35.8259C54.5529 36.0415 54.8089 36.4322 55.0244 36.9576V37.5638C54.957 37.6851 54.8762 37.8198 54.8089 37.9411C54.6068 38.3048 54.4182 38.6416 54.1891 38.9515C51.1175 43.276 47.965 47.6545 44.9337 51.8848L44.314 52.7605C43.2632 54.202 41.8082 55.0103 40.2185 55.0103Z" fill="#F78F1E" stroke="#F78F1E" stroke-width="0.5"/>
<path d="M12.5192 39.3021C12.0881 39.3021 11.6839 39.1269 11.3875 38.8306C11.0777 38.5207 10.916 38.1165 10.916 37.6989C10.916 36.8232 11.63 36.1092 12.5057 36.0957H12.5327C13.4084 36.0957 14.1359 36.8097 14.1359 37.6854C14.1359 38.1165 13.9742 38.5207 13.6643 38.8306C13.3545 39.1269 12.9503 39.3021 12.5192 39.3021Z" fill="#F78F1E" stroke="#F78F1E" stroke-width="0.5"/>
<path d="M20.5895 39.3021C20.1584 39.3021 19.7677 39.1269 19.4579 38.8306C19.148 38.5342 18.9863 38.1165 18.9863 37.6989C18.9863 36.8232 19.7004 36.1092 20.5626 36.0957H20.5895C21.4652 36.0957 22.1927 36.8097 22.1927 37.6854C22.1927 38.1165 22.031 38.5207 21.7347 38.8306C21.4383 39.1269 21.0341 39.3021 20.5895 39.3021Z" fill="#F78F1E" stroke="#F78F1E" stroke-width="0.5"/>
<path d="M28.632 39.3021C27.7563 39.2886 27.0557 38.5746 27.0422 37.6989C27.0422 37.2678 27.2039 36.8636 27.5138 36.5672C27.8236 36.2574 28.2278 36.0957 28.6454 36.0957C29.0765 36.0957 29.4807 36.2708 29.7906 36.5807C30.1004 36.8906 30.2621 37.2947 30.2621 37.7258C30.2486 38.6015 29.5346 39.3156 28.6589 39.3156L28.632 39.3021Z" fill="#F78F1E" stroke="#F78F1E" stroke-width="0.5"/>
<path d="M36.8219 39.3021C36.3908 39.3021 35.9866 39.1269 35.6902 38.8171C35.3938 38.5072 35.2187 38.1031 35.2322 37.672C35.2456 36.7963 35.9731 36.0957 36.8354 36.0957C37.2665 36.0957 37.6706 36.2708 37.9805 36.5672C38.2904 36.8771 38.452 37.2813 38.452 37.7124C38.452 38.6015 37.7245 39.3156 36.8488 39.3156L36.8219 39.3021Z" fill="#F78F1E" stroke="#F78F1E" stroke-width="0.5"/>
</svg>
