<svg width="27" height="27" viewBox="0 0 27 27" fill="none" xmlns="http://www.w3.org/2000/svg">
<g filter="url(#filter0_d_472_1126)">
<path d="M15.555 18C15.0953 18 14.6311 17.9954 14.185 17.9954C13.9438 17.9954 13.7071 17.9909 13.4704 17.9909C13.0927 17.9909 12.8514 17.736 12.8514 17.3491C12.8514 16.9622 13.0972 16.7119 13.475 16.7119C13.9575 16.7074 14.4763 16.7074 15.0999 16.7074C15.5232 16.7074 15.9465 16.7074 16.3652 16.7074H16.9296C17.271 16.7074 17.5441 16.5981 17.7534 16.3751L17.9446 16.1748L17.7079 16.0292C17.6806 16.011 17.6488 15.9928 17.6214 15.9746C17.5623 15.9382 17.5077 15.9063 17.4576 15.8699C16.7293 15.3783 16.3561 14.7047 16.3516 13.8718C16.3425 12.5973 16.347 11.3274 16.3516 10.3671C16.3607 9.02892 17.2983 8.05033 18.641 7.98661C18.6637 7.98661 18.682 7.98206 18.7138 7.98206L18.7593 7.97751L18.9733 7.9593L18.9641 7.74538C18.8959 5.71084 18.0766 4.18153 16.5382 3.19839C15.5733 2.58394 14.581 2.26988 13.5797 2.26988C12.5556 2.26988 11.5224 2.59759 10.5074 3.24846C8.92345 4.25435 8.09507 5.76091 8.0268 7.71352L8.02225 7.90924L8.21796 7.94565C8.309 7.96386 8.39547 7.97751 8.48195 7.98661C8.65946 8.01392 8.81877 8.03668 8.97352 8.0822C9.94755 8.35529 10.6348 9.24284 10.6485 10.2396C10.6621 11.2956 10.6621 12.4562 10.653 13.8991C10.6439 15.1963 9.6608 16.2067 8.36361 16.2431C8.22707 16.2477 8.04501 16.2522 7.8675 16.2522C7.44875 16.2522 7.11649 16.2249 6.81609 16.1703C5.89213 16.0019 5.17754 15.2281 5.03189 14.245C5.02734 14.1995 5.01368 14.1585 5.00458 14.1312V10.1304C5.01823 10.1031 5.02278 10.0803 5.02734 10.053C5.16843 9.1427 5.6509 8.5328 6.50203 8.18233C6.72506 8.0913 6.73871 7.90924 6.74782 7.82276V7.81365C6.76147 7.67256 6.77058 7.53146 6.77968 7.39491C6.80244 7.06265 6.82519 6.72128 6.89347 6.40268C7.17111 5.08728 7.83108 3.89023 8.80511 2.94351C9.77914 2.00134 10.9899 1.37323 12.3098 1.13199C12.501 1.09558 12.6967 1.06827 12.8833 1.04096C12.9698 1.02731 13.0563 1.01365 13.1382 1H14.053C14.1623 1.01821 14.2761 1.03641 14.3807 1.05462C14.6311 1.09558 14.8678 1.13199 15.0908 1.20027C16.4972 1.60991 17.6305 2.27443 18.4635 3.17564C19.3101 4.0905 19.8745 5.2739 20.1384 6.70308C20.1794 6.9261 20.1976 7.14913 20.2113 7.39036V7.39491C20.2204 7.54056 20.234 7.69076 20.2477 7.83641C20.2613 7.95475 20.3524 8.11406 20.4935 8.17323C21.4356 8.57376 21.9818 9.38394 21.9864 10.3944C21.9909 11.5596 21.9909 12.7248 21.9864 13.849C21.9818 15.2236 20.9805 16.2295 19.6105 16.2477C19.3374 16.2522 19.2236 16.4024 19.1553 16.5481C18.6911 17.4948 18.0174 17.9636 17.0889 17.9863C16.6292 17.9954 16.1422 18 15.555 18ZM7.90846 9.27015C7.80377 9.27015 7.69909 9.27015 7.58985 9.27015H7.43965C6.70685 9.2747 6.28356 9.69344 6.28356 10.4217C6.28356 11.5869 6.28356 12.7293 6.28356 13.808C6.28356 14.5272 6.7023 14.9459 7.426 14.9596C7.56254 14.9596 7.70364 14.9641 7.84474 14.9641C7.98128 14.9641 8.10873 14.9641 8.23617 14.9596C8.93711 14.9459 9.3604 14.5181 9.3604 13.8126C9.3604 13.412 9.3604 13.007 9.3604 12.6064V12.1103C9.3604 11.9328 9.3604 11.7598 9.3604 11.5823C9.3604 11.1863 9.3604 10.7767 9.3604 10.3716C9.35585 9.7071 8.92345 9.2747 8.26348 9.2656C8.14514 9.27015 8.0268 9.27015 7.90846 9.27015ZM19.1553 9.27015C19.0233 9.27015 18.8913 9.27015 18.7593 9.27015C18.0538 9.2747 17.6305 9.70254 17.626 10.408C17.626 10.845 17.626 11.2819 17.626 11.7189V12.1103C17.626 12.2878 17.626 12.4653 17.626 12.6428C17.626 13.0479 17.626 13.4667 17.626 13.8809C17.6305 14.4862 18.0174 14.905 18.6046 14.9414C18.7684 14.9505 18.9368 14.9596 19.1098 14.9596C19.3283 14.9596 19.5558 14.9505 19.788 14.9323C20.234 14.9004 20.5845 14.5727 20.6619 14.113C20.6937 13.9218 20.6937 13.7352 20.6937 13.5531V13.5486C20.6983 12.2787 20.6983 11.3092 20.6937 10.3989C20.6937 9.69344 20.2659 9.2656 19.5558 9.2656C19.4284 9.27015 19.2919 9.27015 19.1553 9.27015Z" fill="#212121" stroke="#212121" stroke-width="0.3"/>
<rect x="5.5" y="2.5" width="15.9909" height="16" stroke="black" shape-rendering="crispEdges"/>
</g>
<defs>
<filter id="filter0_d_472_1126" x="0.854553" y="0.849609" width="25.2852" height="26.1504" filterUnits="userSpaceOnUse" color-interpolation-filters="sRGB">
<feFlood flood-opacity="0" result="BackgroundImageFix"/>
<feColorMatrix in="SourceAlpha" type="matrix" values="0 0 0 0 0 0 0 0 0 0 0 0 0 0 0 0 0 0 127 0" result="hardAlpha"/>
<feOffset dy="4"/>
<feGaussianBlur stdDeviation="2"/>
<feComposite in2="hardAlpha" operator="out"/>
<feColorMatrix type="matrix" values="0 0 0 0 0 0 0 0 0 0 0 0 0 0 0 0 0 0 0.25 0"/>
<feBlend mode="normal" in2="BackgroundImageFix" result="effect1_dropShadow_472_1126"/>
<feBlend mode="normal" in="SourceGraphic" in2="effect1_dropShadow_472_1126" result="shape"/>
</filter>
</defs>
</svg>
