<svg width="10" height="17" viewBox="0 0 10 17" fill="none" xmlns="http://www.w3.org/2000/svg">
<g clip-path="url(#clip0_215_1591)">
<path d="M3.27656 16.0309C3.27656 15.9664 3.26365 15.9018 3.26365 15.8243C3.26365 13.5386 3.26365 11.24 3.26365 8.95426C3.26365 8.88969 3.26365 8.82512 3.26365 8.73472C2.43718 8.73472 1.62362 8.73472 0.810059 8.73472C0.810059 7.77912 0.810059 6.84933 0.810059 5.89372C1.62362 5.89372 2.43718 5.89372 3.26365 5.89372C3.26365 5.81624 3.26365 5.75167 3.26365 5.68711C3.26365 4.93812 3.25074 4.20204 3.27656 3.45305C3.3153 2.56201 3.57358 1.73553 4.21926 1.06402C4.69706 0.560392 5.30401 0.263378 5.97551 0.121328C6.5308 0.00510563 7.08609 0.0180193 7.64137 0.0438465C8.09335 0.0567602 8.54533 0.0955011 8.99731 0.134242C9.03605 0.134242 9.06187 0.147156 9.11353 0.160069C9.11353 0.999456 9.11353 1.83884 9.11353 2.69114C9.06187 2.69114 9.01022 2.69114 8.94565 2.69114C8.39037 2.70406 7.83508 2.69114 7.26688 2.71697C6.60828 2.75571 6.23379 3.11729 6.20796 3.77589C6.18213 4.46031 6.19505 5.14473 6.19505 5.84207C6.19505 5.85498 6.20796 5.85498 6.20796 5.89372C7.12483 5.89372 8.05461 5.89372 8.99731 5.89372C8.86817 6.84933 8.75195 7.79203 8.63572 8.73472C7.82217 8.73472 7.02152 8.73472 6.19505 8.73472C6.19505 8.79929 6.18213 8.83803 6.18213 8.88969C6.18213 11.24 6.18213 13.5903 6.18213 15.9276C6.18213 15.9664 6.18213 16.0051 6.19505 16.0309C5.23944 16.0309 4.258 16.0309 3.27656 16.0309Z" fill="#1D8BFA"/>
</g>
<defs>
<clipPath id="clip0_215_1591">
<rect width="8.30347" height="16" fill="white" transform="translate(0.810059 0.03125)"/>
</clipPath>
</defs>
</svg>
