<svg width="19" height="13" viewBox="0 0 19 13" fill="none" xmlns="http://www.w3.org/2000/svg">
<path d="M9.18618 0.03125C11.4828 0.0590535 13.5958 0.915402 15.4642 2.43347C16.2983 3.11188 17.0212 3.89594 17.6551 4.76341C18.2446 5.56971 18.2501 6.48723 17.6551 7.28797C16.2483 9.18973 14.5022 10.6578 12.2557 11.4529C9.35856 12.4761 6.59489 12.1147 3.97024 10.5577C2.53558 9.70688 1.36227 8.56137 0.394707 7.21568C-0.111317 6.50947 -0.13912 5.58639 0.361343 4.89131C1.79044 2.88945 3.60879 1.3825 5.95541 0.559517C6.95634 0.209193 7.99063 0.0368107 9.18618 0.03125ZM8.88034 10.6911C9.83122 10.6911 10.6097 10.5855 11.3715 10.3575C13.6069 9.68463 15.2918 8.27777 16.632 6.4205C16.8266 6.15359 16.8043 5.85887 16.593 5.56971C15.8646 4.56878 15.0249 3.67907 13.9962 2.97842C11.416 1.21568 8.65791 0.848674 5.74967 2.05535C3.96468 2.79492 2.59675 4.06276 1.47348 5.6142C1.2733 5.89223 1.28998 6.18695 1.50129 6.48167C2.01843 7.18788 2.59675 7.84404 3.25847 8.41679C4.92112 9.85701 6.82288 10.6633 8.88034 10.6911Z" fill="#F78F1E"/>
<path d="M5.76064 5.65281C5.81624 4.65188 6.32227 3.5453 7.63459 2.98923C8.81902 2.48877 10.0146 2.5555 11.0655 3.33956C12.1165 4.12362 12.4835 5.24132 12.3445 6.52028C12.1499 8.28302 10.7653 9.53974 8.66332 9.33956C6.62811 9.14493 5.73283 7.48784 5.76064 5.65281ZM9.04701 8.02723C10.2092 8.02723 11.0433 7.20425 11.0489 6.04762C11.0544 4.87431 10.2259 4.03464 9.05813 4.03464C7.89595 4.03464 7.06184 4.85763 7.05628 6.01425C7.04516 7.18756 7.8737 8.02167 9.04701 8.02723Z" fill="#F78F1E"/>
</svg>
