<svg width="17" height="14" viewBox="0 0 17 14" fill="none" xmlns="http://www.w3.org/2000/svg">
<g clip-path="url(#clip0_215_1583)">
<path d="M16.8099 4.29438C16.8099 6.84851 16.8099 9.39829 16.8099 11.9524C16.8056 11.9611 16.7926 11.9698 16.7926 11.9785C16.571 12.8603 16.0367 13.2816 15.1246 13.2816C12.8832 13.2816 10.6418 13.2816 8.40043 13.2816C6.18512 13.2816 3.96981 13.2816 1.7545 13.2816C1.31143 13.2816 0.92484 13.1513 0.599059 12.8429C0.342777 12.5996 0.212465 12.2869 0.134277 11.9481C0.134277 9.39395 0.134277 6.84416 0.134277 4.29004C0.16034 4.29873 0.186402 4.30741 0.208121 4.32045C2.46253 5.82338 4.71259 7.32632 6.967 8.82491C7.97475 9.49819 8.97815 9.49819 9.99025 8.82491C12.0057 7.48269 14.0169 6.14048 16.0281 4.79826C16.2843 4.6332 16.545 4.46379 16.8099 4.29438Z" fill="#1D8BFA"/>
<path d="M0.129883 2.53515C0.129883 2.3918 0.129883 2.2528 0.129883 2.10946C0.155945 2.01824 0.182008 1.92268 0.212414 1.83146C0.433945 1.17121 1.01166 0.780273 1.76748 0.780273C6.2372 0.780273 10.7026 0.780273 15.1723 0.780273C15.2201 0.780273 15.2722 0.780273 15.32 0.784617C15.9846 0.819367 16.5275 1.22334 16.7317 1.8358C16.7621 1.92702 16.7838 2.02259 16.8142 2.1138C16.8142 2.25715 16.8142 2.39615 16.8142 2.53949C16.71 2.96952 16.4971 3.32571 16.1192 3.57765C13.8692 5.0719 11.6234 6.57484 9.37338 8.06909C8.77395 8.46871 8.16148 8.46002 7.56204 8.0604C5.31198 6.5618 3.0706 5.06321 0.829227 3.56896C0.473039 3.33005 0.238477 3.01296 0.155945 2.59162C0.151602 2.5699 0.13857 2.55252 0.129883 2.53515Z" fill="#1D8BFA"/>
</g>
<defs>
<clipPath id="clip0_215_1583">
<rect width="16.68" height="12.5013" fill="white" transform="translate(0.129883 0.780273)"/>
</clipPath>
</defs>
</svg>
