<svg width="49" height="48" viewBox="0 0 49 48" fill="none" xmlns="http://www.w3.org/2000/svg">
<path d="M24.3903 1.57056e-05C37.5214 0.0150485 48.1718 10.7786 48.1569 24.0225C48.1272 37.2965 37.4471 48.045 24.3606 47.9999C11.2146 47.9548 0.638481 37.2514 0.623627 24.0075C0.608773 10.7635 11.2741 -0.0150171 24.3903 1.57056e-05ZM22.0285 20.4146C22.0285 22.3238 22.0136 24.2329 22.0285 26.1572C22.0285 26.4728 22.0433 26.8036 22.1324 27.1042C22.4444 28.2167 23.5436 28.9533 24.6428 28.8029C25.8608 28.6376 26.7521 27.7356 26.7521 26.5029C26.7669 22.429 26.7669 18.3701 26.7521 14.2962C26.7521 14.1158 26.7224 13.9204 26.663 13.74C26.351 12.6276 25.2667 11.876 24.1675 12.0113C22.9494 12.1616 22.0433 13.0786 22.0285 14.2812C21.9988 16.3257 22.0285 18.3701 22.0285 20.4146ZM26.7521 33.6134C26.7521 32.2755 25.7123 31.2082 24.4051 31.2082C23.0831 31.2082 22.0433 32.2605 22.0285 33.5984C22.0285 34.9664 23.0237 35.9736 24.3754 35.9736C25.742 35.9736 26.7521 34.9664 26.7521 33.6134Z" fill="#FF2E35"/>
</svg>
