<svg width="14" height="14" viewBox="0 0 14 14" fill="none" xmlns="http://www.w3.org/2000/svg">
<path d="M14 6.60775C14 6.87358 14 7.13941 14 7.44322C13.9619 7.6331 13.9619 7.785 13.9238 7.97488C13.7333 9.342 13.2 10.5572 12.2856 11.5826C10.6093 13.4434 8.514 14.2408 6.03768 13.937C4.3995 13.7472 2.98991 12.9877 1.88509 11.7724C0.285004 10.0635 -0.286454 8.01285 0.132615 5.69634C0.437393 4.17732 1.16124 2.88615 2.30416 1.82283C3.29468 0.911414 4.4757 0.34178 5.8091 0.113927C6.07578 0.0759512 6.34246 0.0379756 6.60914 0C6.87582 0 7.1425 0 7.44728 0C7.48538 0 7.52347 0 7.56157 0.0379756C7.82825 0.0759512 8.09493 0.113927 8.36161 0.151902C9.77121 0.417732 10.9522 1.06332 11.9428 2.05068C13.0095 3.07602 13.6571 4.32922 13.8857 5.81027C13.9619 6.0761 13.9619 6.34192 14 6.60775ZM7.90445 8.2407C7.90445 7.59512 7.90445 6.98751 7.90445 6.34193C7.90445 5.77229 7.29489 5.39253 6.76153 5.54444C6.34246 5.65836 6.11388 6.00014 6.11388 6.49383C6.11388 7.6331 6.11388 8.77236 6.11388 9.91163C6.11388 9.98758 6.11388 10.1015 6.11388 10.1775C6.15197 10.6332 6.60914 11.0129 7.10441 10.9749C7.63777 10.899 7.94254 10.5572 7.94254 10.0256C7.94254 9.41795 7.90445 8.81034 7.90445 8.2407ZM6.15198 4.02541C6.15198 4.5191 6.49485 4.86088 7.02821 4.86088C7.52347 4.86088 7.90445 4.5191 7.94254 4.02541C7.94254 3.53173 7.59967 3.18995 7.06631 3.18995C6.49485 3.18995 6.15198 3.53173 6.15198 4.02541Z" fill="#1D8BFA"/>
</svg>
