<svg width="17" height="16" viewBox="0 0 17 16" fill="none" xmlns="http://www.w3.org/2000/svg">
<path d="M8.0674 0.567383C10.0338 0.567383 12.005 0.567383 13.9713 0.567383C14.9665 0.567383 15.7454 1.10585 16.0242 2.0049C16.0915 2.21644 16.1252 2.45202 16.1252 2.67799C16.13 5.51937 16.13 8.36555 16.13 11.2069C16.13 12.4185 15.2261 13.3175 14.0098 13.3223C12.0434 13.3272 10.0722 13.3272 8.10587 13.3223C7.74048 13.3223 7.46163 13.4473 7.22605 13.7262C6.86547 14.1541 6.49046 14.5676 6.12507 14.9906C5.75968 15.4137 5.30295 15.5916 4.75486 15.457C4.2164 15.3224 3.89428 14.9618 3.76928 14.4233C3.73562 14.2887 3.70197 14.1541 3.66831 14.0243C3.55293 13.606 3.20677 13.3416 2.76926 13.3272C2.38464 13.3175 1.99522 13.3464 1.62502 13.2695C0.649046 13.0627 0.00480775 12.2262 0 11.2117C0 9.18768 0 7.16842 0 5.14436C0 4.34147 0 3.53857 0 2.73087C0 1.45682 0.884626 0.572191 2.15868 0.567383C4.12986 0.567383 6.09623 0.567383 8.0674 0.567383ZM5.61545 6.88477C5.62026 6.33187 5.16833 5.87033 4.61544 5.87033C4.05774 5.87033 3.60581 6.31264 3.601 6.87034C3.5962 7.42323 4.04812 7.87997 4.60102 7.88478C5.15871 7.88959 5.61064 7.44247 5.61545 6.88477ZM9.07222 6.88477C9.07703 6.33187 8.62029 5.87033 8.0674 5.87033C7.5097 5.87033 7.05778 6.31745 7.05297 6.87515C7.04816 7.42804 7.5049 7.88478 8.05779 7.88959C8.61549 7.88959 9.06742 7.43766 9.07222 6.88477ZM12.529 6.87996C12.529 6.32707 12.0771 5.87033 11.5242 5.87033C10.9665 5.87033 10.5194 6.31745 10.5145 6.87515C10.5097 7.42804 10.9665 7.88478 11.5194 7.88478C12.0771 7.88959 12.529 7.43766 12.529 6.87996Z" fill="#1D8BFA"/>
</svg>
