<svg width="15" height="20" viewBox="0 0 15 20" fill="none" xmlns="http://www.w3.org/2000/svg">
<path d="M10.058 19.0001C9.69378 19.0001 9.32953 19.0001 8.96529 19.0001C8.60105 19.0001 8.23681 18.9961 7.87256 18.9961C7.50832 18.9961 7.14808 18.9961 6.78384 18.9961C6.41959 18.9961 6.05935 18.9961 5.69511 18.9961C5.17877 18.9961 4.75048 18.9961 4.34621 18.9921C3.55769 18.9881 2.8292 18.7399 2.24081 18.2796C1.64841 17.8153 1.25215 17.1789 1.09204 16.4384C0.851883 15.3177 1.07203 14.2129 1.74448 13.1522C2.69711 11.6592 4.09404 10.8867 5.89925 10.8587C6.47163 10.8507 7.07603 10.8467 7.74448 10.8467C8.525 10.8467 9.29751 10.8507 9.8819 10.8587C11.0587 10.8707 12.1394 11.2509 13.008 11.9674C13.8766 12.6839 14.457 13.6646 14.6851 14.8053C14.8772 15.774 14.7692 16.5905 14.3569 17.303C13.7125 18.4077 12.7278 18.9761 11.4309 18.9921C11.0267 19.0001 10.5864 19.0001 10.058 19.0001ZM7.72446 17.9034H7.88457C8.25282 17.9034 8.62106 17.9034 8.99331 17.9034C9.36156 17.9034 9.7338 17.9034 10.102 17.9034C10.6584 17.9034 11.1187 17.9034 11.547 17.8954C12.7118 17.8834 13.6484 16.9548 13.6844 15.778C13.7125 14.7853 13.3402 13.8327 12.6357 13.1002C11.9353 12.3717 11.0027 11.9634 10.014 11.9554C9.30952 11.9474 8.59705 11.9434 7.90058 11.9434C7.21212 11.9434 6.51566 11.9474 5.8312 11.9554C4.61439 11.9674 3.61372 12.4718 2.85722 13.4564C2.32887 14.1449 2.0767 14.9414 2.10872 15.826C2.14875 16.9548 3.09338 17.8834 4.21012 17.8994C4.64241 17.9034 5.10272 17.9074 5.66709 17.9074C6.03934 17.9074 6.40759 17.9074 6.77983 17.9034C7.09204 17.9034 7.40825 17.8994 7.72446 17.9034Z" fill="#212121" stroke="#212121" stroke-width="0.4"/>
<path d="M7.89658 9.13742C5.65509 9.13742 3.82587 7.31221 3.82187 5.06271C3.81786 3.98999 4.24615 2.97332 5.01866 2.1968C5.78718 1.42428 6.79585 1 7.85656 1C8.96129 1 9.99398 1.42028 10.7625 2.18879C11.531 2.9533 11.9553 3.98599 11.9593 5.09073C11.9633 6.15544 11.539 7.16811 10.7665 7.93662C9.99398 8.70914 8.9773 9.13342 7.90859 9.13742H7.89658ZM7.88057 2.09273C6.24748 2.09273 4.9186 3.41761 4.91459 5.0467C4.91459 5.85123 5.2228 6.60774 5.79118 7.17612C6.34755 7.73249 7.08804 8.04069 7.87257 8.04069C9.54968 8.04069 10.8626 6.73182 10.8666 5.06671C10.8666 3.43362 9.53367 2.09673 7.89258 2.09273H7.88057Z" fill="#212121" stroke="#212121" stroke-width="0.4"/>
</svg>
