<svg width="15" height="19" viewBox="0 0 15 19" fill="none" xmlns="http://www.w3.org/2000/svg">
<path d="M9.54457 17.9993C9.20097 17.9993 8.85738 17.9993 8.51378 17.9993C8.17019 17.9993 7.82659 17.9955 7.483 17.9955C7.1394 17.9955 6.79958 17.9955 6.45598 17.9955C6.11239 17.9955 5.77257 17.9955 5.42897 17.9955C4.9419 17.9955 4.53789 17.9955 4.15654 17.9917C3.41271 17.988 2.72552 17.7536 2.17048 17.3188C1.61166 16.8803 1.23786 16.2793 1.08683 15.5799C0.860283 14.5214 1.06795 13.4781 1.70228 12.4763C2.60092 11.0662 3.91866 10.3366 5.62154 10.3102C6.16147 10.3026 6.73162 10.2988 7.36217 10.2988C8.09845 10.2988 8.82717 10.3026 9.37844 10.3102C10.4885 10.3215 11.508 10.6806 12.3273 11.3573C13.1467 12.034 13.6941 12.9602 13.9094 14.0375C14.0906 14.9524 13.9887 15.7236 13.5998 16.3964C12.9919 17.4398 12.063 17.9766 10.8397 17.9917C10.4583 17.9993 10.043 17.9993 9.54457 17.9993ZM7.34329 16.9635H7.49432C7.8417 16.9635 8.18907 16.9635 8.54021 16.9635C8.88759 16.9635 9.23873 16.9635 9.5861 16.9635C10.1109 16.9635 10.5452 16.9635 10.9492 16.9559C12.0479 16.9446 12.9314 16.0676 12.9654 14.9562C12.9919 14.0186 12.6407 13.1189 11.9762 12.4271C11.3154 11.7391 10.4357 11.3535 9.50304 11.346C8.8385 11.3384 8.16641 11.3346 7.50943 11.3346C6.85999 11.3346 6.20301 11.3384 5.55735 11.346C4.40951 11.3573 3.46557 11.8336 2.75195 12.7636C2.25355 13.4138 2.01567 14.1661 2.04588 15.0015C2.08364 16.0676 2.97472 16.9446 4.02816 16.9597C4.43594 16.9635 4.87016 16.9673 5.40254 16.9673C5.75369 16.9673 6.10106 16.9673 6.45221 16.9635C6.74672 16.9635 7.04501 16.9597 7.34329 16.9635Z" fill="#F78F1E" stroke="#F78F1E" stroke-width="0.3"/>
<path d="M7.50588 8.68535C5.39144 8.68535 3.66591 6.96153 3.66214 4.837C3.65836 3.82388 4.06237 2.86369 4.79109 2.13031C5.51604 1.40071 6.46754 1 7.46812 1C8.51023 1 9.48438 1.39693 10.2093 2.12275C10.9343 2.84479 11.3345 3.8201 11.3383 4.86346C11.3421 5.86902 10.9418 6.82544 10.2131 7.55126C9.48438 8.28085 8.52534 8.68156 7.5172 8.68535H7.50588ZM7.49077 2.03202C5.95026 2.03202 4.6967 3.2833 4.69292 4.82188C4.69292 5.58172 4.98366 6.2962 5.51982 6.833C6.04465 7.35846 6.74317 7.64954 7.48322 7.64954C9.06527 7.64954 10.3037 6.41339 10.3075 4.84078C10.3075 3.29842 9.05017 2.0358 7.5021 2.03202H7.49077V2.03202Z" fill="#F78F1E" stroke="#F78F1E" stroke-width="0.3"/>
</svg>
