<svg width="16" height="16" viewBox="0 0 16 16" fill="#1D8BFA" xmlns="http://www.w3.org/2000/svg">
<path d="M1.61534 15.0739C0.872969 15.0739 0.227013 14.5678 0.0486519 13.8447C-0.0429389 13.4783 0.0197285 13.1071 0.0968576 12.76C0.231833 12.1382 0.361989 11.5067 0.492144 10.8945C0.564453 10.557 0.631941 10.2196 0.704249 9.88698C0.786199 9.4917 0.959739 9.16872 1.23451 8.89395L1.99616 8.1323C4.40162 5.72201 6.80709 3.31173 9.21255 0.901446C9.80066 0.313337 10.5141 0.0192823 11.3914 0C12.317 0.0192823 13.0497 0.33744 13.6427 0.973755C13.7632 1.10391 13.8885 1.23407 14.0042 1.3594C14.0861 1.44617 14.1681 1.53294 14.25 1.61971C15.3684 2.80557 15.3443 4.70487 14.2018 5.85217C12.5532 7.50562 10.8756 9.18318 9.25112 10.8077C8.22916 11.8249 7.21202 12.8468 6.19005 13.8688C5.90082 14.158 5.53446 14.3315 5.00902 14.4376C4.09793 14.616 3.02294 14.8232 1.94796 15.0498C1.83708 15.0643 1.72621 15.0739 1.61534 15.0739ZM11.324 1.37386C10.8708 1.37386 10.4466 1.55222 10.1236 1.87038C7.80013 4.19389 5.26933 6.72951 2.1697 9.83878C2.05883 9.94965 2.01544 10.0943 1.99616 10.1762C1.93831 10.4365 1.88529 10.7017 1.83708 10.9572L1.7937 11.1693C1.69247 11.6899 1.59123 12.2153 1.48518 12.7408L1.302 13.7193H1.59123C1.6057 13.7193 1.62016 13.7193 1.6298 13.7193C1.64426 13.7193 1.6539 13.7193 1.66354 13.7193C1.68764 13.7193 1.70693 13.7193 1.73103 13.7145L2.02991 13.6663C2.99402 13.5072 3.98706 13.3385 4.96563 13.1698C5.10061 13.1457 5.20666 13.0589 5.25969 13.0059L5.81405 12.4515C8.24844 10.0123 10.76 7.48634 13.2329 4.99893C13.9367 4.29031 13.9463 3.31655 13.2474 2.58382C13.0497 2.37654 12.8424 2.16926 12.64 1.97161L12.5387 1.87038C12.2109 1.55222 11.7771 1.37386 11.324 1.37386Z" fill="#1D8BFA"/>
</svg>
