<svg width="13" height="12" viewBox="0 0 13 12" fill="none" xmlns="http://www.w3.org/2000/svg">
<path d="M9.54798 2.41272C9.54798 2.48424 9.54798 2.52256 9.54798 2.56343C9.54798 4.89548 9.54798 7.23009 9.54798 9.56215C9.54798 9.78948 9.45603 9.94529 9.27978 10.0117C9.0218 10.1088 8.74849 9.94018 8.71784 9.66177C8.71273 9.61579 8.71529 9.56726 8.71529 9.51873C8.71529 7.19944 8.71529 4.88016 8.71529 2.56087C8.71529 2.52 8.71529 2.48169 8.71529 2.42039C8.67442 2.4587 8.64632 2.48169 8.62333 2.50723C8.08438 3.04619 7.54543 3.58514 7.00903 4.12664C6.89664 4.23903 6.77148 4.30544 6.60801 4.27735C6.29639 4.22115 6.16356 3.85845 6.36535 3.61323C6.38579 3.58769 6.41133 3.56215 6.43432 3.53916C7.22103 2.74989 8.01031 1.95806 8.79702 1.16879C8.92729 1.03852 9.07033 0.964448 9.25424 1.02575C9.31043 1.04363 9.36918 1.07428 9.41005 1.1177C10.2376 1.94274 11.0627 2.76777 11.8851 3.59535C12.0026 3.71285 12.0333 3.86355 11.9745 4.01936C11.9158 4.17518 11.7957 4.26713 11.6297 4.28501C11.4816 4.30034 11.3666 4.23648 11.267 4.13686C10.9145 3.78182 10.5595 3.42933 10.207 3.07428C9.98987 2.85717 9.78042 2.64516 9.54798 2.41272Z" fill="#212121" stroke="#212121" stroke-width="0.2"/>
<path d="M3.44947 9.59597C3.44947 9.52701 3.44947 9.48103 3.44947 9.43761C3.44947 7.12088 3.44947 4.8067 3.44947 2.48997C3.44947 2.44655 3.44947 2.40057 3.45202 2.35715C3.47501 2.13493 3.65125 1.97656 3.87092 1.97656C4.08548 1.97912 4.25662 2.13748 4.27961 2.3546C4.28471 2.39802 4.28216 2.444 4.28216 2.48742C4.28216 4.80415 4.28216 7.11833 4.28216 9.43506C4.28216 9.47848 4.28216 9.52446 4.28216 9.59342C4.32047 9.55766 4.34602 9.53467 4.37156 9.51168C4.91051 8.97273 5.44947 8.43378 5.98586 7.89227C6.10336 7.77477 6.23363 7.70325 6.40477 7.73901C6.69851 7.80032 6.82878 8.15025 6.64742 8.3878C6.62188 8.42356 6.58867 8.45421 6.55802 8.48486C5.77641 9.26903 4.9948 10.0506 4.21575 10.8322C3.97565 11.0723 3.76109 11.0723 3.52099 10.8322C2.73171 10.043 1.94244 9.2537 1.15572 8.46188C0.966707 8.27286 0.948827 8.03787 1.10719 7.86162C1.24768 7.70581 1.48267 7.68027 1.65125 7.80798C1.69212 7.83863 1.72788 7.87439 1.76364 7.91015C2.29238 8.43889 2.82111 8.97018 3.34985 9.49891C3.37795 9.52956 3.40604 9.55511 3.44947 9.59597Z" fill="#212121" stroke="#212121" stroke-width="0.2"/>
</svg>
