<svg width="17" height="20" viewBox="0 0 17 20" fill="none" xmlns="http://www.w3.org/2000/svg">
<g clip-path="url(#clip0_183_584)">
<path d="M0.630164 20.0004C0.161414 19.8442 -0.0104612 19.5108 -4.44898e-05 19.0264C0.0207888 18.1306 0.00516384 17.2296 0.00516384 16.3337C0.00516384 15.7921 0.322872 15.4744 0.864539 15.4744C1.36454 15.4744 1.86454 15.4744 2.39058 15.4744C2.39058 15.391 2.39058 15.3233 2.39058 15.2556C2.39058 14.1514 2.38537 13.0421 2.39058 11.9379C2.40621 9.38582 3.98433 7.20353 6.401 6.39103C9.68746 5.28686 13.3125 7.42749 13.9062 10.8337C13.9739 11.2296 14.0104 11.6358 14.0156 12.0369C14.0312 13.1046 14.0208 14.1723 14.0208 15.24C14.0208 15.3129 14.0208 15.3806 14.0208 15.4796C14.2135 15.4796 14.3906 15.4796 14.5729 15.4796C14.9166 15.4796 15.2656 15.4744 15.6093 15.4796C16.0781 15.4848 16.4062 15.8129 16.4114 16.2817C16.4166 17.1983 16.401 18.1202 16.4166 19.0369C16.427 19.5212 16.2552 19.8546 15.7864 20.0108C10.7343 20.0004 5.68225 20.0004 0.630164 20.0004ZM3.9635 15.4535C6.80204 15.4535 9.62496 15.4535 12.4635 15.4535C12.4635 15.3702 12.4635 15.3077 12.4635 15.2452C12.4635 14.1723 12.4687 13.0994 12.4583 12.0212C12.4583 11.7244 12.4322 11.4223 12.3854 11.1306C12.0104 8.89103 9.72391 7.29728 7.49475 7.71916C5.38537 8.1202 3.95829 9.83374 3.95829 11.9796C3.95829 13.0733 3.95829 14.1671 3.95829 15.2608C3.95829 15.3233 3.9635 15.3858 3.9635 15.4535ZM1.57808 18.4223C6.01037 18.4223 10.427 18.4223 14.8437 18.4223C14.8437 17.9535 14.8437 17.5004 14.8437 17.0421C10.4166 17.0421 6.00516 17.0421 1.57808 17.0421C1.57808 17.5056 1.57808 17.9587 1.57808 18.4223Z" fill="#FF2E35"/>
<path d="M8.36469 0C8.82302 0.15625 9.00531 0.473958 8.9949 0.953125C8.97927 1.88542 8.9949 2.8125 8.98969 3.74479C8.98969 4.125 8.7449 4.41667 8.38552 4.50521C8.05219 4.58854 7.6824 4.43229 7.53136 4.11458C7.46886 3.98438 7.43761 3.82812 7.43761 3.68229C7.42719 2.77083 7.44802 1.85938 7.42719 0.947917C7.41156 0.473958 7.59386 0.15625 8.05219 0C8.15636 0 8.26052 0 8.36469 0Z" fill="#FF2E35"/>
<path d="M2.85427 5.88021C2.6876 5.79167 2.48448 5.73959 2.35427 5.61459C1.63552 4.91667 0.927188 4.20834 0.229271 3.4948C-0.0780207 3.1823 -0.0623957 2.70834 0.239688 2.40625C0.541771 2.09896 1.02615 2.09375 1.34385 2.40625C2.04177 3.09896 2.73969 3.80209 3.4324 4.50521C3.67719 4.75 3.72927 5.04688 3.59906 5.3698C3.47927 5.65625 3.19802 5.83855 2.85427 5.88021Z" fill="#FF2E35"/>
<path d="M13.5263 5.83332C13.2034 5.8229 12.9638 5.67707 12.8284 5.3854C12.6877 5.08853 12.7138 4.78645 12.943 4.55207C13.6617 3.8177 14.3857 3.08853 15.12 2.36978C15.4117 2.08332 15.8909 2.11457 16.1773 2.40103C16.4742 2.6979 16.5002 3.16145 16.2034 3.47395C15.8752 3.8229 15.5263 4.15624 15.1877 4.49999C14.8284 4.85936 14.469 5.21874 14.1148 5.57811C13.9534 5.73957 13.7607 5.83853 13.5263 5.83332Z" fill="#FF2E35"/>
</g>
<defs>
<clipPath id="clip0_183_584">
<rect width="16.4167" height="20" fill="#FF2E35"/>
</clipPath>
</defs>
</svg>
